# Blender v2.76 (sub 0) OBJ File: 'Minecraft_Basic_Human.blend'
# www.blender.org
o Cube
v 0.837269 -0.883955 -0.824574
v 0.837269 -0.883955 0.824574
v 0.424982 -0.883955 0.412287
v 0.424982 -0.883955 -0.412287
v 0.837269 0.765192 -0.824573
v 0.837268 0.765192 0.824574
v 0.000000 -0.883955 0.412287
v 0.000000 -0.883955 -0.412287
v 0.837269 -0.883955 0.000000
v 0.000000 -0.883955 -0.824574
v 0.837269 -0.059382 -0.824573
v 0.000000 -0.883955 0.824574
v 0.837269 -0.059382 0.824574
v 0.424982 -0.883955 0.824574
v 0.424982 -0.883955 -0.824574
v 0.837269 0.765192 0.000000
v 0.000000 0.765192 -0.824573
v 0.000000 0.765192 0.824574
v 0.837269 -0.883955 -0.412287
v 0.000000 0.765192 0.000000
v 0.837269 -0.059382 0.000000
v 0.000000 -0.059382 0.824574
v 0.837269 -0.883955 0.412287
v 0.000000 -0.059382 -0.824574
v 0.424982 -2.941591 0.412287
v 0.424982 -2.941591 -0.412287
v 0.000000 -2.941591 0.412287
v 0.000000 -2.941591 -0.412287
v 0.837269 -2.941591 0.000000
v 0.837269 -2.941591 -0.412287
v 0.837269 -2.941591 0.412287
v 0.837269 -1.538035 0.000000
v 0.837269 -1.548929 0.412287
v 0.837269 -1.527161 -0.412287
v 3.379028 -0.883955 0.000000
v 3.379028 -0.883955 -0.412287
v 3.379028 -0.883955 0.412287
v 3.379028 -1.538035 0.000000
v 3.379028 -1.548929 0.412287
v 3.379028 -1.527161 -0.412287
v 0.424982 -5.532350 0.412287
v 0.424982 -5.532350 -0.412287
v 0.837269 -5.532350 0.000000
v 0.837269 -5.532350 -0.412287
v 0.837269 -5.532350 0.412287
v 0.218839 -2.941591 0.412287
v 0.837269 -2.941591 -0.206143
v 0.631125 -2.941591 0.412287
v 0.837269 -4.236970 -0.412287
v 0.631125 -2.941591 -0.412287
v 0.218839 -2.941591 -0.412287
v 0.837269 -4.236970 0.412287
v 0.837269 -2.941591 0.206143
v 0.218839 -5.532350 0.412287
v 0.837269 -5.532350 -0.206143
v 0.631125 -5.532350 0.412287
v 0.631125 -5.532350 -0.412287
v 0.218839 -5.532350 -0.412287
v 0.837269 -5.532350 0.206143
v 0.046277 -2.941591 0.412287
v 0.837269 -2.941591 -0.103072
v 0.528054 -2.941591 0.412287
v 0.837269 -4.884660 -0.412287
v 0.528054 -2.941591 -0.412287
v 0.046277 -2.941591 -0.412287
v 0.837269 -4.884660 0.412287
v 0.837269 -2.941591 0.309215
v 0.046277 -5.532350 0.412287
v 0.837269 -5.532350 -0.103072
v 0.528054 -5.532350 0.412287
v 0.528054 -5.532350 -0.412287
v 0.046277 -5.532350 -0.412287
v 0.046277 -5.532350 -0.000000
v 0.837269 -5.532350 0.309215
v 0.321910 -2.941591 0.412287
v 0.837269 -2.941591 -0.309215
v 0.734197 -2.941591 0.412287
v 0.837269 -3.589280 -0.412287
v 0.734197 -2.941591 -0.412287
v 0.321910 -2.941591 -0.412287
v 0.837269 -3.589280 0.412287
v 0.837269 -2.941591 0.103072
v 0.321910 -5.532350 0.412287
v 0.837269 -5.532350 -0.309215
v 0.734197 -5.532350 0.412287
v 0.734197 -5.532350 -0.412287
v 0.321910 -5.532350 -0.412287
v 0.837269 -5.532350 0.103072
v 0.046277 -4.236970 -0.412287
v 0.046277 -5.532350 0.206143
v 0.046277 -5.532350 -0.206143
v 0.046277 -4.236970 0.412287
v 0.046277 -5.532350 0.309215
v 0.046277 -5.532350 -0.103072
v 0.046277 -4.884660 0.412287
v 0.046277 -4.884660 -0.412287
v 0.046277 -3.589280 -0.412287
v 0.046277 -5.532350 0.103072
v 0.046277 -5.532350 -0.309215
v 0.046277 -3.589280 0.412287
vt 0.920561 0.560837
vt 0.959895 0.560837
vt 0.959895 0.599965
vt 0.282607 0.419581
vt 0.358073 0.419581
vt 0.321942 0.481050
vt 0.920561 0.599965
vt 0.331776 0.481050
vt 0.312108 0.481050
vt 0.302275 0.481050
vt 0.292441 0.481050
vt 0.282607 0.481050
vt 0.282607 0.358112
vt 0.358073 0.358112
vt 0.282607 0.296643
vt 0.282607 0.235174
vt 0.292441 0.235174
vt 0.302275 0.235174
vt 0.312108 0.235174
vt 0.321942 0.235174
vt 0.331776 0.235174
vt 0.341610 0.235174
vt 0.358073 0.296643
vt 0.358073 0.235174
vt 0.358073 0.481050
vt 0.341610 0.481050
vt 0.282607 0.103003
vt 0.884626 0.040926
vt 0.864959 0.174130
vt 0.845291 0.039894
vt 0.040105 0.639093
vt 0.040105 0.560837
vt 0.118775 0.560837
vt 0.362488 0.039894
vt 0.321942 0.039894
vt 0.959895 0.640298
vt 0.920561 0.640298
vt 0.040105 0.875393
vt 0.119986 0.875393
vt 0.119986 0.953649
vt 0.119986 0.797137
vt 0.197445 0.560837
vt 0.197445 0.599965
vt 0.118775 0.639093
vt 0.197445 0.639093
vt 0.197445 0.678221
vt 0.040105 0.717349
vt 0.522580 0.100937
vt 0.493078 0.235174
vt 0.483244 0.235174
vt 0.840351 0.875393
vt 0.840351 0.953649
vt 0.799805 0.953649
vt 0.760470 0.797137
vt 0.840351 0.797137
vt 0.483244 0.039894
vt 0.463577 0.235174
vt 0.442698 0.039894
vt 0.904294 0.174130
vt 0.894460 0.174130
vt 0.920561 0.799546
vt 0.920561 0.760418
vt 0.959895 0.760418
vt 0.920561 0.720086
vt 0.760470 0.639093
vt 0.840351 0.639093
vt 0.840351 0.717349
vt 0.799805 0.560837
vt 0.840351 0.560837
vt 0.442698 0.802063
vt 0.442698 0.560837
vt 0.482039 0.560837
vt 0.482039 0.802063
vt 0.521380 0.560837
vt 0.522580 0.039894
vt 0.765082 0.039894
vt 0.765082 0.100937
vt 0.040105 0.103003
vt 0.040105 0.039894
vt 0.601590 0.802063
vt 0.601590 0.560837
vt 0.640925 0.560837
vt 0.640925 0.802063
vt 0.680260 0.560837
vt 0.845291 0.297068
vt 0.845291 0.235599
vt 0.923962 0.297068
vt 0.447113 0.358112
vt 0.447113 0.296643
vt 0.522580 0.358112
vt 0.601590 0.881850
vt 0.665033 0.881850
vt 0.663994 0.920978
vt 0.478829 0.881850
vt 0.442698 0.920977
vt 0.442698 0.911196
vt 0.920561 0.879334
vt 0.924976 0.879334
vt 0.924976 0.957588
vt 0.277655 0.622306
vt 0.356325 0.683775
vt 0.277655 0.683775
vt 0.282607 0.039894
vt 0.845291 0.174130
vt 0.855125 0.174130
vt 0.884626 0.174130
vt 0.874793 0.174130
vt 0.362488 0.235174
vt 0.040105 0.953649
vt 0.040105 0.797137
vt 0.197445 0.717349
vt 0.118775 0.717349
vt 0.522580 0.235174
vt 0.512746 0.235174
vt 0.502912 0.235174
vt 0.760470 0.953649
vt 0.760470 0.875393
vt 0.442698 0.235174
vt 0.447113 0.235174
vt 0.473411 0.235174
vt 0.923962 0.041960
vt 0.923962 0.174130
vt 0.914128 0.174130
vt 0.959895 0.799546
vt 0.959895 0.720085
vt 0.760470 0.717349
vt 0.760470 0.560837
vt 0.521380 0.802063
vt 0.680260 0.802063
vt 0.923962 0.358537
vt 0.845291 0.358537
vt 0.923962 0.420006
vt 0.914128 0.420006
vt 0.904294 0.420006
vt 0.894460 0.420006
vt 0.874793 0.420006
vt 0.864959 0.420006
vt 0.884626 0.420006
vt 0.923962 0.235599
vt 0.855125 0.420006
vt 0.845291 0.420006
vt 0.522580 0.419581
vt 0.447113 0.419581
vt 0.522580 0.481050
vt 0.512746 0.481050
vt 0.502912 0.481050
vt 0.493078 0.481050
vt 0.483244 0.481050
vt 0.473411 0.481050
vt 0.463577 0.481050
vt 0.447113 0.481050
vt 0.522580 0.296643
vt 0.662956 0.960106
vt 0.601590 0.960106
vt 0.601590 0.920978
vt 0.518164 0.901414
vt 0.518164 0.911196
vt 0.488663 0.881850
vt 0.518164 0.920977
vt 0.518164 0.930759
vt 0.488663 0.960105
vt 0.518164 0.940541
vt 0.518164 0.950323
vt 0.508331 0.960105
vt 0.518164 0.960105
vt 0.478829 0.960105
vt 0.498497 0.960105
vt 0.468995 0.960105
vt 0.442698 0.930759
vt 0.459162 0.960105
vt 0.442698 0.960105
vt 0.442698 0.950323
vt 0.442698 0.940541
vt 0.442698 0.901414
vt 0.442698 0.891632
vt 0.459162 0.881850
vt 0.518164 0.881850
vt 0.518164 0.891632
vt 0.508331 0.881850
vt 0.442698 0.881850
vt 0.468995 0.881850
vt 0.498497 0.881850
vt 0.920561 0.957588
vt 0.307156 0.806713
vt 0.297323 0.806713
vt 0.277655 0.745244
vt 0.287489 0.806713
vt 0.277655 0.806713
vt 0.277655 0.560837
vt 0.356325 0.560837
vt 0.356325 0.622306
vt 0.356325 0.745244
vt 0.356325 0.806713
vt 0.346491 0.806713
vt 0.336658 0.806713
vt 0.326824 0.806713
vt 0.316990 0.806713
vn 0.000000 -1.000000 0.000000
vn -0.000000 0.000000 1.000000
vn 1.000000 -0.000000 0.000000
vn 0.000000 1.000000 0.000000
vn 0.000000 0.000000 -1.000000
vn 0.000000 -0.999700 -0.026400
vn -1.000000 0.000000 0.000000
s off
f 23/1/1 2/2/1 14/3/1
f 66/4/2 95/5/2 41/6/2
f 3/7/1 23/1/1 14/3/1
f 83/8/2 41/6/2 95/5/2
f 70/9/2 56/10/2 66/4/2
f 85/11/2 45/12/2 66/4/2
f 66/4/2 52/13/2 92/14/2
f 81/15/2 31/16/2 77/17/2
f 77/17/2 48/18/2 81/15/2
f 62/19/2 25/20/2 81/15/2
f 75/21/2 46/22/2 100/23/2
f 60/24/2 100/23/2 46/22/2
f 92/14/2 95/5/2 66/4/2
f 68/25/2 54/26/2 95/5/2
f 41/6/2 70/9/2 66/4/2
f 85/11/2 66/4/2 56/10/2
f 81/15/2 48/18/2 62/19/2
f 25/20/2 75/21/2 100/23/2
f 100/23/2 81/15/2 25/20/2
f 54/26/2 83/8/2 95/5/2
f 52/13/2 81/15/2 92/14/2
f 100/23/2 92/14/2 81/15/2
f 48/18/2 77/17/2 33/27/2
f 32/28/3 47/29/3 34/30/3
f 16/31/3 6/32/3 13/33/3
f 7/34/2 46/22/2 3/35/2
f 14/3/1 12/36/1 7/37/1
f 16/38/4 20/39/4 18/40/4
f 17/41/4 20/39/4 16/38/4
f 13/33/3 2/42/3 23/43/3
f 21/44/3 9/45/3 19/46/3
f 5/47/3 16/31/3 21/44/3
f 34/48/5 64/49/5 26/50/5
f 22/51/2 12/52/2 14/53/2
f 6/54/2 18/55/2 22/51/2
f 4/56/5 51/57/5 8/58/5
f 53/59/3 82/60/3 32/28/3
f 19/61/1 4/62/1 15/63/1
f 15/63/1 4/62/1 8/64/1
f 11/65/5 24/66/5 17/67/5
f 15/68/5 10/69/5 24/66/5
f 34/70/6 40/71/6 38/72/6
f 32/73/6 38/72/6 39/74/6
f 19/75/5 36/76/5 40/77/5
f 33/27/2 39/78/2 37/79/2
f 23/80/4 37/81/4 35/82/4
f 9/83/4 35/82/4 36/84/4
f 49/85/3 78/86/3 52/87/3
f 89/88/5 97/89/5 49/90/5
f 37/91/3 39/92/3 38/93/3
f 42/94/1 73/95/1 94/96/1
f 28/97/1 65/98/1 60/99/1
f 100/100/7 89/101/7 92/102/7
f 33/27/2 23/103/2 3/35/2
f 3/35/2 25/20/2 33/27/2
f 62/19/2 48/18/2 33/27/2
f 77/17/2 31/16/2 33/27/2
f 33/27/2 25/20/2 62/19/2
f 30/104/3 34/30/3 76/105/3
f 32/28/3 29/106/3 61/107/3
f 61/107/3 47/29/3 32/28/3
f 76/105/3 34/30/3 47/29/3
f 21/44/3 16/31/3 13/33/3
f 25/20/2 3/35/2 75/21/2
f 7/34/2 27/108/2 60/24/2
f 60/24/2 46/22/2 7/34/2
f 75/21/2 3/35/2 46/22/2
f 3/7/1 14/3/1 7/37/1
f 6/109/4 16/38/4 18/40/4
f 5/110/4 17/41/4 16/38/4
f 23/43/3 9/45/3 21/44/3
f 21/44/3 13/33/3 23/43/3
f 19/46/3 1/111/3 11/112/3
f 11/112/3 21/44/3 19/46/3
f 11/112/3 5/47/3 21/44/3
f 26/50/5 4/56/5 34/48/5
f 19/75/5 34/48/5 4/56/5
f 30/113/5 79/114/5 34/48/5
f 50/115/5 64/49/5 34/48/5
f 34/48/5 79/114/5 50/115/5
f 14/53/2 2/116/2 13/117/2
f 13/117/2 22/51/2 14/53/2
f 13/117/2 6/54/2 22/51/2
f 28/118/5 8/58/5 65/119/5
f 4/56/5 26/50/5 80/120/5
f 80/120/5 51/57/5 4/56/5
f 65/119/5 8/58/5 51/57/5
f 29/106/3 32/28/3 82/60/3
f 33/121/3 31/122/3 67/123/3
f 53/59/3 32/28/3 33/121/3
f 33/121/3 67/123/3 53/59/3
f 1/124/1 19/61/1 15/63/1
f 10/125/1 15/63/1 8/64/1
f 5/126/5 11/65/5 17/67/5
f 24/66/5 11/65/5 15/68/5
f 1/127/5 15/68/5 11/65/5
f 32/73/6 34/70/6 38/72/6
f 33/128/6 32/73/6 39/74/6
f 34/48/5 19/75/5 40/77/5
f 23/103/2 33/27/2 37/79/2
f 9/83/4 23/80/4 35/82/4
f 19/129/4 9/83/4 36/84/4
f 52/87/3 66/130/3 63/131/3
f 45/132/3 74/133/3 66/130/3
f 59/134/3 88/135/3 66/130/3
f 69/136/3 55/137/3 63/131/3
f 88/135/3 43/138/3 66/130/3
f 66/130/3 74/133/3 59/134/3
f 31/122/3 81/139/3 67/123/3
f 53/59/3 67/123/3 81/139/3
f 47/29/3 61/107/3 78/86/3
f 82/60/3 53/59/3 81/139/3
f 76/105/3 47/29/3 78/86/3
f 29/106/3 82/60/3 81/139/3
f 81/139/3 78/86/3 29/106/3
f 55/137/3 84/140/3 63/131/3
f 66/130/3 43/138/3 63/131/3
f 30/104/3 76/105/3 78/86/3
f 81/139/3 52/87/3 78/86/3
f 84/140/3 44/141/3 63/131/3
f 63/131/3 49/85/3 52/87/3
f 78/86/3 61/107/3 29/106/3
f 43/138/3 69/136/3 63/131/3
f 49/90/5 63/142/5 96/143/5
f 44/144/5 86/145/5 63/142/5
f 57/146/5 71/147/5 63/142/5
f 42/148/5 87/149/5 96/143/5
f 58/150/5 72/151/5 96/143/5
f 96/143/5 89/88/5 49/90/5
f 97/89/5 65/119/5 51/57/5
f 51/57/5 80/120/5 97/89/5
f 26/50/5 64/49/5 78/152/5
f 50/115/5 79/114/5 78/152/5
f 30/113/5 78/152/5 79/114/5
f 63/142/5 86/145/5 57/146/5
f 71/147/5 42/148/5 63/142/5
f 58/150/5 96/143/5 87/149/5
f 97/89/5 80/120/5 26/50/5
f 64/49/5 50/115/5 78/152/5
f 78/152/5 49/90/5 97/89/5
f 42/148/5 96/143/5 63/142/5
f 97/89/5 26/50/5 78/152/5
f 40/153/3 36/154/3 35/155/3
f 35/155/3 37/91/3 38/93/3
f 38/93/3 40/153/3 35/155/3
f 55/156/1 69/157/1 71/158/1
f 43/159/1 88/160/1 70/161/1
f 59/162/1 74/163/1 85/164/1
f 45/165/1 85/164/1 74/163/1
f 70/161/1 41/166/1 43/159/1
f 85/164/1 56/167/1 59/162/1
f 69/157/1 43/159/1 71/158/1
f 59/162/1 56/167/1 70/161/1
f 41/166/1 83/168/1 98/169/1
f 54/170/1 68/171/1 93/172/1
f 93/172/1 90/173/1 54/170/1
f 98/169/1 73/95/1 41/166/1
f 91/174/1 99/175/1 58/176/1
f 42/94/1 71/158/1 43/159/1
f 54/170/1 90/173/1 83/168/1
f 59/162/1 70/161/1 88/160/1
f 44/177/1 84/178/1 86/179/1
f 43/159/1 41/166/1 73/95/1
f 90/173/1 98/169/1 83/168/1
f 99/175/1 72/180/1 58/176/1
f 87/181/1 42/94/1 94/96/1
f 91/174/1 58/176/1 87/181/1
f 73/95/1 42/94/1 43/159/1
f 86/179/1 84/178/1 55/156/1
f 71/158/1 57/182/1 55/156/1
f 91/174/1 87/181/1 94/96/1
f 86/179/1 55/156/1 57/182/1
f 27/183/1 28/97/1 60/99/1
f 98/184/7 90/185/7 95/186/7
f 93/187/7 68/188/7 95/186/7
f 95/186/7 92/102/7 89/101/7
f 100/100/7 60/189/7 65/190/7
f 65/190/7 97/191/7 100/100/7
f 89/101/7 96/192/7 95/186/7
f 72/193/7 99/194/7 96/192/7
f 91/195/7 94/196/7 96/192/7
f 73/197/7 98/184/7 95/186/7
f 93/187/7 95/186/7 90/185/7
f 100/100/7 97/191/7 89/101/7
f 96/192/7 99/194/7 91/195/7
f 73/197/7 95/186/7 96/192/7
f 96/192/7 94/196/7 73/197/7
